<?xml version="1.0" encoding="UTF-8"?>
<svg width="60px" height="60px" viewBox="0 0 60 60" version="1.1" xmlns="http://www.w3.org/2000/svg" xmlns:xlink="http://www.w3.org/1999/xlink">
    <!-- Generator: Sketch 46.1 (44463) - http://www.bohemiancoding.com/sketch -->
    <title>Fill 1</title>
    <desc>Created with Sketch.</desc>
    <defs>
        <linearGradient x1="50%" y1="0%" x2="-5.06118507%" y2="100%" id="linearGradient-1">
            <stop stop-color="#F76457" offset="0%"></stop>
            <stop stop-color="#C81581" offset="100%"></stop>
        </linearGradient>
    </defs>
    <g id="Page-2" stroke="none" stroke-width="1" fill="none" fill-rule="evenodd">
        <path d="M30.0005,52.8616 L44.1415,52.8616 C40.2975,56.0696 35.3675,58.0006 30.0005,58.0006 C24.6315,58.0006 19.7025,56.0696 15.8585,52.8616 L30.0005,52.8616 Z M7.2255,43.8976 C8.1385,46.4436 9.4625,48.7906 11.1135,50.8616 L3.3865,50.8616 L7.2255,43.8976 Z M7.7885,35.6076 C7.7885,26.5986 13.0965,18.8206 20.7225,15.2706 L7.9685,38.4076 C7.8545,37.4896 7.7885,36.5566 7.7885,35.6076 L7.7885,35.6076 Z M29.1895,4.0526 L33.5235,11.4766 C32.3735,11.3066 31.1975,11.2156 30.0005,11.2156 C28.2665,11.2156 26.5765,11.4036 24.9455,11.7526 L29.1895,4.0526 Z M52.2115,35.6076 C52.2115,36.7836 52.1195,37.9376 51.9455,39.0656 L37.6565,14.5886 C46.1435,17.7396 52.2115,25.9726 52.2115,35.6076 L52.2115,35.6076 Z M56.5165,50.8616 L48.8875,50.8616 C50.4645,48.8826 51.7405,46.6516 52.6475,44.2356 L56.5165,50.8616 Z M13.7725,32.0196 L45.5175,32.0196 L50.2425,40.1146 L9.3115,40.1146 L13.7725,32.0196 Z M19.9355,20.8416 L23.6165,14.1626 C25.6395,13.5496 27.7815,13.2156 30.0005,13.2156 C31.6695,13.2156 33.2935,13.4086 34.8575,13.7616 L38.9915,20.8416 L19.9355,20.8416 Z M18.8325,22.8416 L40.1585,22.8416 L44.3495,30.0196 L14.8755,30.0196 L18.8325,22.8416 Z M13.7605,50.8616 C11.4805,48.3976 9.7445,45.4186 8.7485,42.1146 L51.2525,42.1146 C50.2555,45.4186 48.5195,48.3976 46.2395,50.8616 L30.0005,50.8616 L13.7605,50.8616 Z M47.1135,52.8616 L60.0005,52.8616 L53.4595,41.6586 C53.9495,39.7236 54.2115,37.6966 54.2115,35.6076 C54.2115,24.2796 46.5445,14.7566 36.1535,12.0136 L29.1405,0.0006 L22.2495,12.5006 C12.6805,15.7576 5.7885,24.8686 5.7885,35.6076 C5.7885,37.5296 6.0165,39.3976 6.4335,41.1916 L0.0005,52.8616 L12.8865,52.8616 C17.2685,57.2716 23.3165,60.0006 30.0005,60.0006 C36.6825,60.0006 42.7325,57.2716 47.1135,52.8616 L47.1135,52.8616 Z" id="Fill-1" fill="url(#linearGradient-1)"></path>
    </g>
</svg>