<?xml version="1.0" encoding="UTF-8"?>
<svg width="60px" height="60px" viewBox="0 0 60 60" version="1.1" xmlns="http://www.w3.org/2000/svg" xmlns:xlink="http://www.w3.org/1999/xlink">
    <!-- Generator: Sketch 46.1 (44463) - http://www.bohemiancoding.com/sketch -->
    <title>Fill 1</title>
    <desc>Created with Sketch.</desc>
    <defs></defs>
    <g id="Page-2" stroke="none" stroke-width="1" fill="none" fill-rule="evenodd">
        <path d="M30,52.861 L44.141,52.861 C40.297,56.069 35.367,58 30,58 C24.631,58 19.702,56.069 15.858,52.861 L30,52.861 Z M7.225,43.897 C8.138,46.443 9.462,48.79 11.113,50.861 L3.386,50.861 L7.225,43.897 Z M7.788,35.607 C7.788,26.598 13.096,18.82 20.722,15.27 L7.968,38.407 C7.854,37.489 7.788,36.556 7.788,35.607 L7.788,35.607 Z M29.189,4.052 L33.523,11.476 C32.373,11.306 31.197,11.215 30,11.215 C28.266,11.215 26.576,11.403 24.945,11.752 L29.189,4.052 Z M52.211,35.607 C52.211,36.783 52.119,37.937 51.945,39.065 L37.656,14.588 C46.143,17.739 52.211,25.972 52.211,35.607 L52.211,35.607 Z M56.516,50.861 L48.887,50.861 C50.464,48.882 51.74,46.651 52.647,44.235 L56.516,50.861 Z M13.772,32.019 L45.517,32.019 L50.242,40.114 L9.311,40.114 L13.772,32.019 Z M19.935,20.841 L23.616,14.162 C25.639,13.549 27.781,13.215 30,13.215 C31.669,13.215 33.293,13.408 34.857,13.761 L38.991,20.841 L19.935,20.841 Z M18.832,22.841 L40.158,22.841 L44.349,30.019 L14.875,30.019 L18.832,22.841 Z M13.76,50.861 C11.48,48.397 9.744,45.418 8.748,42.114 L51.252,42.114 C50.255,45.418 48.519,48.397 46.239,50.861 L30,50.861 L13.76,50.861 Z M47.113,52.861 L60,52.861 L53.459,41.658 C53.949,39.723 54.211,37.696 54.211,35.607 C54.211,24.279 46.544,14.756 36.153,12.013 L29.14,0 L22.249,12.5 C12.68,15.757 5.788,24.868 5.788,35.607 C5.788,37.529 6.016,39.397 6.433,41.191 L0,52.861 L12.886,52.861 C17.268,57.271 23.316,60 30,60 C36.682,60 42.732,57.271 47.113,52.861 L47.113,52.861 Z" id="Fill-1" fill="#FFFFFF"></path>
    </g>
</svg>