<?xml version="1.0" encoding="UTF-8"?>
<svg width="50px" height="50px" viewBox="0 0 50 50" version="1.1" xmlns="http://www.w3.org/2000/svg" xmlns:xlink="http://www.w3.org/1999/xlink">
    <!-- Generator: Sketch 46.1 (44463) - http://www.bohemiancoding.com/sketch -->
    <title>Page 1</title>
    <desc>Created with Sketch.</desc>
    <defs>
        <linearGradient x1="50%" y1="0%" x2="0%" y2="87.52826%" id="linearGradient-1">
            <stop stop-color="#F76457" offset="0%"></stop>
            <stop stop-color="#C81581" offset="100%"></stop>
        </linearGradient>
    </defs>
    <g id="Page-2" stroke="none" stroke-width="1" fill="none" fill-rule="evenodd">
        <path d="M25,44.1269924 L36.121,44.1269924 C33.044,46.5431095 29.191,47.9965862 25,47.9965862 C20.809,47.9965862 16.956,46.5431095 13.879,44.1269924 L25,44.1269924 Z M6.24,37.098015 C6.951,38.9181165 7.913,40.6049909 9.085,42.1235786 L3.387,42.1235786 L6.24,37.098015 Z M6.824,29.6393054 C6.824,22.1245001 11.321,15.6594838 17.736,12.8216481 L6.966,31.8330435 C6.881,31.1118145 6.824,30.3825719 6.824,29.6393054 L6.824,29.6393054 Z M25,4.05971776 L28.1,9.54306138 C27.086,9.38378998 26.057,9.27861075 25,9.27861075 C23.938,9.27861075 22.903,9.38579339 21.885,9.54506479 L25,4.05971776 Z M43.176,29.6393054 C43.176,30.3825719 43.119,31.1118145 43.034,31.8330435 L32.264,12.8216481 C38.679,15.6594838 43.176,22.1245001 43.176,29.6393054 L43.176,29.6393054 Z M46.517,42.1235786 L40.915,42.1235786 C42.067,40.6300336 43.02,38.9742121 43.727,37.1891703 L46.517,42.1235786 Z M11.713,42.1235786 C9.807,40.0570572 8.365,37.5537917 7.561,34.7720516 L20.574,11.8550009 C21.994,11.4943864 23.471,11.2820246 25,11.2820246 C26.521,11.2820246 27.99,11.4913813 29.402,11.8489907 L42.415,34.8682154 C41.605,37.6118907 40.172,40.0800965 38.287,42.1235786 L25,42.1235786 L11.713,42.1235786 Z M39.168,44.1269924 L50,44.1269924 L44.564,34.534647 C44.949,32.9629689 45.176,31.3301866 45.176,29.6393054 C45.176,20.4065728 39.082,12.620305 30.736,10.1250531 L25,0.000801365527 L19.264,10.1250531 C10.918,12.620305 4.824,20.4065728 4.824,29.6393054 C4.824,31.3301866 5.051,32.9629689 5.436,34.534647 L0,44.1269924 L10.832,44.1269924 C14.476,47.7561765 19.477,50 25,50 C30.523,50 35.524,47.7561765 39.168,44.1269924 L39.168,44.1269924 Z" id="Page-1" fill="url(#linearGradient-1)"></path>
    </g>
</svg>