<?xml version="1.0" encoding="UTF-8"?>
<svg width="49px" height="49px" viewBox="0 0 49 49" version="1.1" xmlns="http://www.w3.org/2000/svg" xmlns:xlink="http://www.w3.org/1999/xlink">
    <!-- Generator: Sketch 46.1 (44463) - http://www.bohemiancoding.com/sketch -->
    <title>Group 7 Copy 2</title>
    <desc>Created with Sketch.</desc>
    <defs>
        <linearGradient x1="50%" y1="2.8593779%" x2="17.1678863%" y2="83.5801061%" id="linearGradient-1">
            <stop stop-color="#F76457" offset="0%"></stop>
            <stop stop-color="#C81581" offset="100%"></stop>
        </linearGradient>
        <linearGradient x1="50%" y1="24.443131%" x2="23.4846178%" y2="97.5258971%" id="linearGradient-2">
            <stop stop-color="#F76457" offset="0%"></stop>
            <stop stop-color="#C81581" offset="100%"></stop>
        </linearGradient>
    </defs>
    <g id="Page-2" stroke="none" stroke-width="1" fill="none" fill-rule="evenodd">
        <g id="Group-7-Copy-2">
            <path d="M24.1898734,46.8884999 C33.8106053,46.8884999 41.6097495,39.0893557 41.6097495,29.4686238 C41.6097495,19.8478918 33.8106053,12.0487476 24.1898734,12.0487476 C14.5691415,12.0487476 6.76999731,19.8478918 6.76999731,29.4686238 C6.76999731,39.0893557 14.5691415,46.8884999 24.1898734,46.8884999 Z M24.1898734,49 C13.4029922,49 4.65849717,40.255505 4.65849717,29.4686238 C4.65849717,18.6817425 13.4029922,9.93724751 24.1898734,9.93724751 C34.9767547,9.93724751 43.7212497,18.6817425 43.7212497,29.4686238 C43.7212497,40.255505 34.9767547,49 24.1898734,49 Z" id="Oval" fill="url(#linearGradient-1)" fill-rule="nonzero"></path>
            <path d="M24.1898734,4.65849717 L3.6027471,41.6097495 L44.7769997,41.6097495 L24.1898734,4.65849717 Z M24.1898734,0.320114654 L48.3705058,43.7212497 L0.00924105544,43.7212497 L24.1898734,0.320114654 Z" id="Rectangle-4" fill="url(#linearGradient-2)" fill-rule="nonzero"></path>
            <path d="" id="Path-3" stroke="#979797"></path>
        </g>
    </g>
</svg>